<?xml version="1.0" ?><svg viewBox="0 0 32 32" xmlns="http://www.w3.org/2000/svg"><title/><g data-name="coffee tree" id="coffee_tree"><path d="M29.7,2.29A1,1,0,0,0,29,2h-.17c-4.58,0-8.1,1.3-10.45,3.85C16.19,8.22,15.05,11.61,15,15.94V17C9.85,17,4.52,12.92,4,6c4.24.26,7.44,2.16,9.07,5.42a1,1,0,0,0,1.78-.9C12.78,6.33,8.56,4,3,4A1,1,0,0,0,2,5c0,7.13,4.37,11.92,9.44,13.46A3,3,0,0,0,15,22.82V26a15.48,15.48,0,0,0-6.5,2.09,1,1,0,0,0,1,1.74A13.43,13.43,0,0,1,15,28.05V29a1,1,0,0,0,2,0V22.44A3.91,3.91,0,0,0,19,23a4,4,0,0,0,2.89-6.76C27.39,14.62,30,10.31,30,3A1,1,0,0,0,29.7,2.29ZM14,21a1,1,0,1,1,1-1A1,1,0,0,1,14,21Zm5,0a2,2,0,1,1,2-2A2,2,0,0,1,19,21Zm-2-6c.19-3.34,1.13-6,2.81-7.77,1.82-2,4.56-3,8.14-3.19C27.71,11.37,24.38,14.7,17,15Z"/><path d="M19.61,12.92A.91.91,0,0,0,20,13a1,1,0,0,0,.92-.61,7.78,7.78,0,0,1,4.46-4.46,1,1,0,0,0-.75-1.86,9.88,9.88,0,0,0-5.55,5.54A1,1,0,0,0,19.61,12.92Z"/><path d="M23.5,28.13a16.33,16.33,0,0,0-4.29-1.74,1,1,0,1,0-.47,1.94,14.36,14.36,0,0,1,3.76,1.54,1,1,0,0,0,1-1.74Z"/></g></svg>